<svg width="15" height="15" viewBox="0 0 15 15" fill="none" xmlns="http://www.w3.org/2000/svg">
<path d="M7.50002 0.416656C3.59429 0.416656 0.416687 3.59427 0.416687 7.49999C0.416687 11.4057 3.59429 14.5833 7.50002 14.5833C11.4057 14.5833 14.5834 11.4057 14.5834 7.49999C14.5834 3.59427 11.4057 0.416656 7.50002 0.416656ZM7.50002 1.47916C10.8315 1.47916 13.5209 4.16848 13.5209 7.49999C13.5209 10.8315 10.8315 13.5208 7.50002 13.5208C4.16851 13.5208 1.47919 10.8315 1.47919 7.49999C1.47919 4.16848 4.16851 1.47916 7.50002 1.47916ZM7.31464 3.24238C7.17386 3.24458 7.03971 3.30257 6.94166 3.4036C6.84361 3.50464 6.78967 3.64046 6.79169 3.78124V8.03124C6.7917 8.17213 6.84768 8.30725 6.9473 8.40687C7.04693 8.5065 7.18204 8.56248 7.32294 8.56249H10.1563C10.2267 8.56349 10.2966 8.55048 10.3619 8.52423C10.4272 8.49798 10.4867 8.459 10.5368 8.40957C10.5869 8.36014 10.6267 8.30124 10.6539 8.23629C10.6811 8.17135 10.6951 8.10164 10.6951 8.03124C10.6951 7.96084 10.6811 7.89113 10.6539 7.82618C10.6267 7.76124 10.5869 7.70233 10.5368 7.6529C10.4867 7.60348 10.4272 7.5645 10.3619 7.53825C10.2966 7.512 10.2267 7.49899 10.1563 7.49999H7.85419V3.78124C7.85521 3.71014 7.84194 3.63955 7.81518 3.57367C7.78842 3.50778 7.7487 3.44794 7.69839 3.39769C7.64807 3.34744 7.58818 3.3078 7.52226 3.28112C7.45634 3.25444 7.38574 3.24127 7.31464 3.24238Z" fill="#C93015"/>
</svg>
