<svg width="15" height="15" viewBox="0 0 15 15" xmlns="http://www.w3.org/2000/svg">
<path d="M7.5 0.416656C3.59427 0.416656 0.416666 3.59427 0.416666 7.49999C0.416666 11.4057 3.59427 14.5833 7.5 14.5833C11.4057 14.5833 14.5833 11.4057 14.5833 7.49999C14.5833 3.59427 11.4057 0.416656 7.5 0.416656ZM7.5 1.47916C10.8315 1.47916 13.5208 4.16848 13.5208 7.49999C13.5208 10.8315 10.8315 13.5208 7.5 13.5208C4.16849 13.5208 1.47917 10.8315 1.47917 7.49999C1.47917 4.16848 4.16849 1.47916 7.5 1.47916ZM7.31462 3.24238C7.17384 3.24458 7.03969 3.30257 6.94164 3.4036C6.84359 3.50464 6.78965 3.64046 6.79167 3.78124V8.03124C6.79168 8.17213 6.84766 8.30725 6.94728 8.40687C7.04691 8.5065 7.18202 8.56248 7.32292 8.56249H10.1562C10.2266 8.56349 10.2965 8.55048 10.3619 8.52423C10.4272 8.49798 10.4867 8.459 10.5368 8.40957C10.5869 8.36014 10.6267 8.30124 10.6539 8.23629C10.6811 8.17135 10.6951 8.10164 10.6951 8.03124C10.6951 7.96084 10.6811 7.89113 10.6539 7.82618C10.6267 7.76124 10.5869 7.70233 10.5368 7.6529C10.4867 7.60348 10.4272 7.5645 10.3619 7.53825C10.2965 7.512 10.2266 7.49899 10.1562 7.49999H7.85417V3.78124C7.85519 3.71014 7.84192 3.63955 7.81516 3.57367C7.7884 3.50778 7.74868 3.44794 7.69836 3.39769C7.64805 3.34744 7.58816 3.3078 7.52224 3.28112C7.45632 3.25444 7.38572 3.24127 7.31462 3.24238Z"/>
</svg>
